<svg t="1679925988521" class="icon" viewBox="0 0 1024 1024" version="1.1" xmlns="http://www.w3.org/2000/svg" p-id="2978" width="200" height="200"><path d="M832 384a192 192 0 0 0 192-192 192 192 0 0 0-192-192C256 0 192 768 192 768v32a32 32 0 0 0 64 0V768s6.528-90.624 64.512-162.624c0 0.96-0.512 1.664-0.512 2.624 0 52.992 43.008 96 96 96s96-43.008 96-96c0-16.128-4.992-30.656-12.032-44.032 13.376 7.04 27.84 12.032 44.032 12.032 52.992 0 96-43.008 96-96 0-16.128-4.992-30.656-12.032-44.032 13.376 7.04 27.84 12.032 44.032 12.032 46.528 0 83.456-33.664 92.224-77.568 21.12 8.192 43.712 13.568 67.776 13.568z m64 121.536c47.552-9.664 90.624-30.848 128-59.136V832a192 192 0 0 1-192 192H192a192 192 0 0 1-192-192V192a192 192 0 0 1 192-192h246.208a738.816 738.816 0 0 0-133.248 128H192C156.672 128 128 156.672 128 192v640a64 64 0 0 0 64 64h640c35.392 0 64-28.608 64-64V505.536z" p-id="2979"></path></svg>
