<?xml version="1.0" standalone="no"?><!DOCTYPE svg PUBLIC "-//W3C//DTD SVG 1.1//EN" "http://www.w3.org/Graphics/SVG/1.1/DTD/svg11.dtd"><svg t="1602574164359" class="icon" viewBox="0 0 1024 1024" version="1.1" xmlns="http://www.w3.org/2000/svg" p-id="1152" data-spm-anchor-id="a313x.7781069.0.i1" xmlns:xlink="http://www.w3.org/1999/xlink" width="200" height="200"><defs><style type="text/css"></style></defs><path d="M595.5584 507.2896c-7.5776 0-15.104-2.56-21.3504-7.4752l-111.104-87.552-110.6432 87.552a34.28352 34.28352 0 0 1-36.5056 3.9424 34.3552 34.3552 0 0 1-19.5072-31.1296V147.1488c0-14.1312 11.4688-25.6 25.6-25.6h282.5216c14.1312 0 25.6 11.4688 25.6 25.6v325.5296a34.3552 34.3552 0 0 1-19.5072 31.1296c-4.8128 2.3552-9.984 3.4816-15.104 3.4816z m10.2912-47.6672c0.0512 0 0 0 0 0zM463.36 361.0624c11.1104 0 22.2208 3.6352 31.488 10.9568l84.1728 66.4064V172.7488H347.648v265.6768l84.1728-66.4064a51.01056 51.01056 0 0 1 31.5392-10.9568z" fill="#e6e6e6" p-id="1153" data-spm-anchor-id="a313x.7781069.0.i2" class=""></path><path d="M728.064 896.1024H306.176c-87.5008 0-158.72-71.2192-158.72-158.72V280.2688c0-87.5008 71.2192-158.72 158.72-158.72h421.888c87.5008 0 158.72 71.2192 158.72 158.72v457.1136c0 87.5008-71.2192 158.72-158.72 158.72zM306.176 172.7488c-59.2896 0-107.52 48.2304-107.52 107.52v457.1136c0 59.2896 48.2304 107.52 107.52 107.52h421.888c59.2896 0 107.52-48.2304 107.52-107.52V280.2688c0-59.2896-48.2304-107.52-107.52-107.52H306.176z" fill="#e6e6e6" p-id="1154" data-spm-anchor-id="a313x.7781069.0.i0" class="selected"></path></svg>