<?xml version="1.0" standalone="no"?><!DOCTYPE svg PUBLIC "-//W3C//DTD SVG 1.1//EN" "http://www.w3.org/Graphics/SVG/1.1/DTD/svg11.dtd"><svg t="1679841380610" class="icon" viewBox="0 0 1024 1024" version="1.1" xmlns="http://www.w3.org/2000/svg" p-id="8516" xmlns:xlink="http://www.w3.org/1999/xlink" width="200" height="200"><path d="M821.333333 682.666667s-21.333333 59.733333-61.866666 115.2c0 0 72.533333 25.6 66.133333 89.6 0 0 2.133333 72.533333-155.733333 66.133333 0 0-110.933333-8.533333-142.933334-55.466667h-29.866666c-34.133333 46.933333-142.933333 55.466667-142.933334 55.466667-157.866667 4.266667-155.733333-66.133333-155.733333-66.133333-6.4-64 66.133333-89.6 66.133333-89.6-40.533333-53.333333-61.866667-115.2-61.866666-115.2-98.133333 160-89.6-21.333333-89.6-21.333334 19.2-108.8 96-179.2 96-179.2-10.666667-98.133333 29.866667-115.2 29.866666-115.2C247.466667 64 505.6 68.266667 512 70.4c6.4 0 264.533333-6.4 273.066667 296.533333 0 0 40.533333 17.066667 29.866666 115.2 0 0 76.8 70.4 96 179.2 0 0 8.533333 181.333333-89.6 21.333334z"  p-id="8517"></path></svg>
