<?xml version="1.0" standalone="no"?><!DOCTYPE svg PUBLIC "-//W3C//DTD SVG 1.1//EN" "http://www.w3.org/Graphics/SVG/1.1/DTD/svg11.dtd"><svg t="1602489291985" class="icon" viewBox="0 0 1024 1024" version="1.1" xmlns="http://www.w3.org/2000/svg" p-id="26516" data-spm-anchor-id="a313x.7781069.0.i4" xmlns:xlink="http://www.w3.org/1999/xlink" width="200" height="200"><defs><style type="text/css"></style></defs><path d="M529.4208 550.5216a245.1648 245.1648 0 1 0-258.8416 0A369.5552 369.5552 0 0 0 32 895.9232a32 32 0 1 0 63.9488 0 304.0576 304.0576 0 1 1 608.1152 0 32 32 0 1 0 63.9488 0 369.5616 369.5616 0 0 0-238.592-345.4016z m-310.6368-208.64A181.2224 181.2224 0 1 1 400 523.5776a181.6768 181.6768 0 0 1-181.216-181.7216z" fill="#ffffff" p-id="26517" data-spm-anchor-id="a313x.7781069.0.i2" class="selected"></path><path d="M800.1216 529.0432A197.8432 197.8432 0 0 0 682.3744 172.8a32 32 0 0 0 0 64 133.76 133.76 0 0 1 0 267.52c-0.288 0-0.5504 0.0768-0.832 0.0832-1.0944 0-2.176-0.0832-3.2768-0.0832a32 32 0 0 0 0 64 250.7008 250.7008 0 0 1 249.9648 250.88 31.8912 31.8912 0 1 0 63.7696 0 315.3728 315.3728 0 0 0-191.8784-290.1568z" fill="#e6e6e6" p-id="26518" data-spm-anchor-id="a313x.7781069.0.i3" class="selected"></path></svg>